<svg xmlns="http://www.w3.org/2000/svg" viewBox="0 0 345.3 204.97"><defs><style>.cls-1{fill:#ededed;opacity:0;}.cls-2{fill:#199eff;}</style></defs><title>Ресурс 5</title><g id="Слой_2" data-name="Слой 2"><g id="Слой_1-2" data-name="Слой 1"><rect class="cls-1" width="345.3" height="204.97"/><path class="cls-2" d="M84.74,176.13a2.44,2.44,0,0,1-3.12,0l-3-2.51c-7.17-6-12.76-10.77-17.67-15.18a2.41,2.41,0,0,1-.18-3.43L67,148.15a2.41,2.41,0,0,1,3.4-.17c3.29,3,6.93,6.08,11.18,9.69a2.42,2.42,0,0,0,3.14,0c4.25-3.61,7.89-6.74,11.18-9.69a2.41,2.41,0,0,1,3.4.17l6.24,6.86a2.41,2.41,0,0,1-.17,3.43c-4.92,4.41-10.51,9.16-17.68,15.18Z"/><path class="cls-2" d="M137.81,96.94a44.41,44.41,0,0,0-.22-5.65c-4-39.19-49.51-61.07-51.55-62l-1.9-.84a3.22,3.22,0,0,0-2.18,0l-1.9.84c-2,.91-47.56,22.79-51.56,62a46.33,46.33,0,0,0-.21,5.65c-.37,15.47,6.83,29.34,11.43,36.48.67,1.11,1.3,2.06,1.84,2.81a2.45,2.45,0,0,0,3.44.5l6.53-4.89a2.38,2.38,0,0,0,.49-3.25s-9.77-15.5-9.15-31.85c.94-24.86,28.68-43.88,39.19-49.56a1.89,1.89,0,0,1,2,0c10.51,5.68,38.25,24.7,39.19,49.56.61,16.35-9.15,31.85-9.15,31.85a2.37,2.37,0,0,0,.49,3.25l6.52,4.89a2.46,2.46,0,0,0,3.45-.5c.54-.75,1.16-1.7,1.84-2.81C131,126.28,138.17,112.41,137.81,96.94Z"/><path class="cls-2" d="M83.16,70a26,26,0,1,0,26,26A26.07,26.07,0,0,0,83.16,70Zm0,40.26A14.22,14.22,0,1,1,97.38,96.06,14.23,14.23,0,0,1,83.16,110.28Z"/><path class="cls-2" d="M172.51,91.41q-6-5.07-6.36-14.84c0-1.32-.07-3.47-.07-6.46s0-5.24.07-6.61q.38-9.54,6.43-14.72T189,43.6a30.57,30.57,0,0,1,11.72,2.13,18.9,18.9,0,0,1,8.19,6.17,16.32,16.32,0,0,1,3.15,9.54,1.49,1.49,0,0,1-.47,1.11,1.65,1.65,0,0,1-1.14.44H200a2.31,2.31,0,0,1-1.51-.41,3.41,3.41,0,0,1-.84-1.5,8.75,8.75,0,0,0-3.12-5A9.64,9.64,0,0,0,189,54.61q-8.3,0-8.59,9.26-.08,2-.07,6.09t.07,6.24q.3,9.26,8.59,9.26A9.69,9.69,0,0,0,194.54,84a8.41,8.41,0,0,0,3.12-5,2.71,2.71,0,0,1,.81-1.51,2.44,2.44,0,0,1,1.54-.4h10.43a1.6,1.6,0,0,1,1.14.44,1.45,1.45,0,0,1,.47,1.1,16.38,16.38,0,0,1-3.15,9.55,19,19,0,0,1-8.19,6.16A30.57,30.57,0,0,1,189,96.47Q178.49,96.47,172.51,91.41Z"/><path class="cls-2" d="M219.68,96.23a1.77,1.77,0,0,1-.52-1.32V45.32a1.9,1.9,0,0,1,.52-1.36,1.74,1.74,0,0,1,1.32-.55h10.06a1.88,1.88,0,0,1,1.36.55,1.84,1.84,0,0,1,.55,1.36V63.65H250.3V45.32a1.84,1.84,0,0,1,.55-1.36,1.88,1.88,0,0,1,1.36-.55h10a1.88,1.88,0,0,1,1.91,1.91V94.91a1.76,1.76,0,0,1-.55,1.32,2,2,0,0,1-1.36.51h-10a1.93,1.93,0,0,1-1.36-.51,1.72,1.72,0,0,1-.55-1.32v-19H233v19a1.72,1.72,0,0,1-.55,1.32,1.93,1.93,0,0,1-1.36.51H221A1.79,1.79,0,0,1,219.68,96.23Z"/><path class="cls-2" d="M277.67,91.41q-6-5.07-6.39-14.91-.07-2.06-.08-6.32t.08-6.39q.29-9.69,6.42-14.94t16.42-5.25q10.2,0,16.33,5.25t6.43,14.94q.15,4.26.15,6.39t-.15,6.32q-.36,9.84-6.35,14.91t-16.41,5.06Q283.68,96.47,277.67,91.41Zm22.54-8.27q2.28-2.31,2.42-7.08.15-4.26.15-6.1T302.63,64q-.13-4.77-2.42-7.08a9.26,9.26,0,0,0-12.26,0q-2.28,2.31-2.43,7.08-.07,2.07-.07,5.95t.07,6.1q.15,4.77,2.43,7.08a9.26,9.26,0,0,0,12.26,0Z"/><path class="cls-2" d="M166.6,160.82a2,2,0,0,1-.52-1.41V109.94a2,2,0,0,1,.55-1.42A1.82,1.82,0,0,1,168,108h10a1.82,1.82,0,0,1,1.36.57,2,2,0,0,1,.55,1.42v29.85l20.27-30.39a2.75,2.75,0,0,1,2.49-1.45h9a1.7,1.7,0,0,1,1.32.57,2.08,2.08,0,0,1,.51,1.42v49.55a1.93,1.93,0,0,1-.51,1.33,1.71,1.71,0,0,1-1.32.58H201.63a1.85,1.85,0,0,1-1.36-.54,1.8,1.8,0,0,1-.55-1.37V130.78l-20.27,29.16a3.82,3.82,0,0,1-1,1.07,2.58,2.58,0,0,1-1.51.39h-9A1.7,1.7,0,0,1,166.6,160.82Z"/><path class="cls-2" d="M225.3,160.82a1.84,1.84,0,0,1-.55-1.33V109.94a2.08,2.08,0,0,1,.51-1.42,1.69,1.69,0,0,1,1.32-.57h32a1.69,1.69,0,0,1,1.32.57,2,2,0,0,1,.52,1.42v8a2,2,0,0,1-.52,1.41,1.67,1.67,0,0,1-1.32.58H238.55v39.55a1.8,1.8,0,0,1-.55,1.37,1.85,1.85,0,0,1-1.36.54H226.58A1.74,1.74,0,0,1,225.3,160.82Z"/><path class="cls-2" d="M316.59,108.41a1.59,1.59,0,0,1,.44,1.14,3.86,3.86,0,0,1-.37,1.45l-14.54,34.82a49.44,49.44,0,0,1-4.88,9.43,13.51,13.51,0,0,1-5.66,4.69,22.49,22.49,0,0,1-8.85,1.46h-4a1.74,1.74,0,0,1-1.28-.58,1.84,1.84,0,0,1-.55-1.33v-8.55a2.06,2.06,0,0,1,.51-1.42,1.69,1.69,0,0,1,1.32-.57h2.87a6.81,6.81,0,0,0,3.49-.84,7.79,7.79,0,0,0,2.6-2.75l-18-35a1.22,1.22,0,0,1-.22-.61,1.7,1.7,0,0,1,.51-1.22,1.67,1.67,0,0,1,1.25-.54H282a2.43,2.43,0,0,1,2.13,1.6l10.13,20.85,8.81-20.85a2.21,2.21,0,0,1,2.21-1.6h10.13A1.56,1.56,0,0,1,316.59,108.41Z"/></g></g></svg>